<svg width="16" height="15" viewBox="0 0 16 15" fill="none" xmlns="http://www.w3.org/2000/svg">
<path d="M7.84578 5.00968V7.84302M7.84578 10.6764H7.85287M14.7382 11.3848L9.0715 1.46818C8.94794 1.25015 8.76876 1.06881 8.55223 0.942642C8.33571 0.816474 8.0896 0.75 7.839 0.75C7.5884 0.75 7.34228 0.816474 7.12576 0.942642C6.90924 1.06881 6.73006 1.25015 6.6065 1.46818L0.93983 11.3848C0.814939 11.6011 0.74945 11.8466 0.750003 12.0964C0.750557 12.3461 0.817131 12.5913 0.94298 12.8071C1.06883 13.0228 1.24948 13.2014 1.46661 13.3248C1.68375 13.4483 1.92966 13.5121 2.17941 13.5098H13.5127C13.7613 13.5096 14.0054 13.4439 14.2206 13.3195C14.4357 13.1951 14.6144 13.0162 14.7385 12.8009C14.8627 12.5856 14.928 12.3414 14.928 12.0928C14.9279 11.8443 14.8624 11.6001 14.7382 11.3848Z" stroke="#F5B942" stroke-width="1.5" stroke-linecap="round"/>
</svg>
